# xmcd
#
# Track frame offsets:
#	150
#	18313
#	32609
#	60237
#	88037
#	116404
#	146960
#	166928
#	191850
#	208406
#	251464
#	269194
#	289368
#	306890
#
# Disc length: 4438 seconds
# Revision: 0
# Processed by: cddbd v1.5.2PL0 Copyright (c) Steve Scherf et al.
# Submitted via: dBpowerAMP V12.0
#
DISCID=d611540e
DTITLE=Van Morrison - Live in Ireland 1979
DYEAR=1900
DGENRE=
TTITLE0=Moondance
TTITLE1=Checking it Out
TTITLE2=Moonshine Whiskey
TTITLE3=Tupelo Honey
TTITLE4=Wavelenght
TTITLE5=St. Dominics Preview
TTITLE6=Don't look Back
TTITLE7=I've been Working
TTITLE8=Gloria
TTITLE9=Cyprus Avenue
TTITLE10=Here comes the Kniht
TTITLE11=Goodnight Irene
TTITLE12=What'd I say
TTITLE13=Just like a Woman
EXTD=
EXTT0=
EXTT1=
EXTT2=
EXTT3=
EXTT4=
EXTT5=
EXTT6=
EXTT7=
EXTT8=
EXTT9=
EXTT10=
EXTT11=
EXTT12=
EXTT13=
PLAYORDER=
